<?xml version="1.0" standalone="no"?><!DOCTYPE svg PUBLIC "-//W3C//DTD SVG 1.1//EN" "http://www.w3.org/Graphics/SVG/1.1/DTD/svg11.dtd"><svg t="1776744077150" class="icon" viewBox="0 0 1024 1024" version="1.1" xmlns="http://www.w3.org/2000/svg" p-id="15681" xmlns:xlink="http://www.w3.org/1999/xlink" width="200" height="200"><path d="M91.27506147-5.81530851h841.44987706a97.09036999 97.09036999 0 0 1 97.09036998 97.09036998v841.44987706a97.09036999 97.09036999 0 0 1-97.09036998 97.09036998H91.27506147a97.09036999 97.09036999 0 0 1-97.09036998-97.09036998V91.27506147a97.09036999 97.09036999 0 0 1 97.09036998-97.09036998z" fill="#EC6630" p-id="15682"></path><path d="M288.64360334 631.59915406h-29.92001593V510.86727851H136.61626482v120.73187555H106.34025074V376.91493149h30.27601408v104.72814592h122.10732259v-104.72814592h29.92001593v254.68422257z m172.9017674-225.46002147h-55.66514517v225.46002147h-30.27601408V406.13913259H319.59924963v-29.2242011h141.94612111v29.2242011z m306.51429888 225.46002147h-29.58019925l-23.64150443-173.27394702-85.58516224 173.27394702h-9.0617674l-86.63697408-174.64939406-23.65768704 174.64939406h-28.88438556l36.18234481-254.68422257h7.2979604l100.19726222 202.1421511 99.5014474-202.1421511h7.29795925l36.57070592 254.68422257z m170.47450965 0h-126.29839076V376.91493149h30.25983261v225.79983814h96.03855815v28.88438443z" fill="#FFFFFF" p-id="15683"></path></svg>